<svg xmlns="http://www.w3.org/2000/svg" viewBox="0 0 256 256" role="img" aria-labelledby="title desc">
  <title id="title">PP Article Library logo</title>
  <desc id="desc">A warm academic app icon with layered papers, citation marks, and the letters PP.</desc>
  <defs>
    <linearGradient id="paper" x1="66" y1="42" x2="198" y2="213" gradientUnits="userSpaceOnUse">
      <stop offset="0" stop-color="#fffaf0"/>
      <stop offset="1" stop-color="#e9efe4"/>
    </linearGradient>
    <linearGradient id="accent" x1="67" y1="49" x2="190" y2="202" gradientUnits="userSpaceOnUse">
      <stop offset="0" stop-color="#d96f51"/>
      <stop offset="1" stop-color="#4f8f82"/>
    </linearGradient>
    <filter id="shadow" x="-20%" y="-20%" width="140%" height="140%" color-interpolation-filters="sRGB">
      <feDropShadow dx="0" dy="12" stdDeviation="14" flood-color="#1f292d" flood-opacity=".16"/>
    </filter>
  </defs>
  <rect width="256" height="256" rx="58" fill="#f8f4ea"/>
  <g filter="url(#shadow)">
    <path d="M77 45h88l38 38v126c0 10-8 18-18 18H77c-10 0-18-8-18-18V63c0-10 8-18 18-18Z" fill="url(#paper)" stroke="#28343d" stroke-opacity=".14" stroke-width="4"/>
    <path d="M164 45v34c0 8 6 14 14 14h25" fill="none" stroke="#28343d" stroke-opacity=".2" stroke-width="8" stroke-linecap="round" stroke-linejoin="round"/>
    <path d="M86 89h72M86 116h91M86 143h62" stroke="#28343d" stroke-opacity=".26" stroke-width="10" stroke-linecap="round"/>
    <path d="M78 186c18-17 38-17 56 0 18 17 38 17 56 0" fill="none" stroke="url(#accent)" stroke-width="11" stroke-linecap="round"/>
  </g>
  <g aria-hidden="true">
    <circle cx="72" cy="69" r="16" fill="#d96f51"/>
    <circle cx="192" cy="187" r="17" fill="#4f8f82"/>
    <path d="M191 58v15M191 89v15M176 81h15M191 81h15" stroke="#d6a24d" stroke-width="8" stroke-linecap="round"/>
  </g>
  <text x="128" y="171" text-anchor="middle" font-family="Inter, ui-sans-serif, system-ui, -apple-system, BlinkMacSystemFont, Segoe UI, sans-serif" font-size="64" font-weight="800" letter-spacing="0" fill="#28343d">PP</text>
</svg>
